<svg width="468" height="74" viewBox="0 0 468 74" fill="none" xmlns="http://www.w3.org/2000/svg">
<path d="M460.615 50.2302C463.096 50.2302 465.307 52.0209 465.307 54.7921C465.307 57.5632 463.096 59.3939 460.615 59.3939C458.134 59.3939 455.904 57.5932 455.904 54.7921C455.904 51.9909 458.124 50.2302 460.615 50.2302ZM460.615 58.4135C462.506 58.4135 464.067 56.8929 464.067 54.7921C464.067 52.6912 462.506 51.2106 460.615 51.2106C458.725 51.2106 457.164 52.7112 457.164 54.7921C457.164 56.8729 458.685 58.4135 460.615 58.4135ZM458.795 52.231H460.725C462.016 52.231 462.736 52.6312 462.736 53.7516C462.736 54.682 462.146 55.0522 461.406 55.1222L462.766 57.3731H461.696L460.435 55.1722H459.805V57.3731H458.785V52.241L458.795 52.231ZM460.705 54.3719C461.266 54.3719 461.716 54.2819 461.716 53.6716C461.716 53.1214 461.116 53.0213 460.665 53.0213H459.795V54.3719H460.705Z" fill="#F1E5D4"/>
<path d="M35.3642 44.4079L18.0873 15.6163H9.82395V58.3735H17.6971V29.932L35.5043 58.3735H43.2374V15.6163H35.3642V44.4079Z" fill="#F1E5D4"/>
<path d="M60.4843 20.9985L47.4691 58.4635H55.3723L57.9233 50.6104H71.6889L74.2499 58.4635H82.4132L69.3079 20.9985H60.4743H60.4843ZM69.458 43.7176H60.2042L64.8561 29.6019L69.458 43.7176Z" fill="#F1E5D4"/>
<path d="M79.8121 28.3914H90.0162V58.4535H97.4392V28.3914H107.633V20.9985H79.8121V28.3914Z" fill="#F1E5D4"/>
<path d="M133.484 51.4707C131.753 51.7908 130.112 52.0009 127.851 52.0009C123.13 52.0009 121.019 49.4199 121.019 43.6576V20.9985H113.496V45.2782C113.496 56.6928 121.299 59.0938 127.851 59.0938C132.053 59.0938 137.885 58.2735 140.847 57.263L140.997 57.213V20.9985H133.484V51.4807V51.4707Z" fill="#F1E5D4"/>
<path d="M173.96 33.0633C173.96 24.87 168.978 20.3682 159.914 20.3682C156.763 20.3682 152.782 20.6883 150.451 21.1185L150.271 21.1485V58.4535H157.734V45.9985H160.465L168.398 58.4535H177.301L167.778 44.1178C171.659 42.0369 173.96 37.9353 173.96 33.0633ZM157.743 27.8112C158.344 27.7612 159.344 27.7012 159.924 27.7012C162.846 27.7012 166.337 28.6815 166.337 33.3134C166.337 37.1149 164.186 39.0357 159.924 39.0357H157.743V27.8012V27.8112Z" fill="#F1E5D4"/>
<path d="M188.916 43.2674H201.931V35.9945H188.916V28.3914H203.092V20.9985H181.523V58.4535H203.422V51.0606H188.916V43.2674Z" fill="#F1E5D4"/>
<path d="M228.152 35.8244C224.36 34.664 222.58 33.6736 222.58 31.2026C222.58 28.9416 224.13 27.5911 226.741 27.5911C229.722 27.5911 232.324 28.7416 235.195 31.3426L235.555 31.6627V23.2394L235.445 23.1693C232.804 21.2786 229.973 20.3882 226.511 20.3882C219.778 20.3882 215.257 24.89 215.257 31.5927C215.257 37.8352 217.928 41.0965 224.78 43.2174C228.342 44.3679 230.163 45.4183 230.163 47.9593C230.163 51.5007 226.571 51.8909 225.011 51.8909C221.129 51.8909 218.358 50.0001 216.167 48.1494L215.817 47.8493V56.3127L215.927 56.3927C218.268 58.1134 221.589 59.1138 225.021 59.1138C232.844 59.1138 237.506 54.8521 237.506 47.7192C237.506 41.3266 234.895 37.9953 228.142 35.8544L228.152 35.8244Z" fill="#F1E5D4"/>
<path d="M274.761 36.4347C278.762 35.7244 281.853 32.193 281.853 27.0809C281.853 18.3674 275.791 15.0561 266.947 15.0561C263.726 15.0561 259.144 15.5663 256.243 16.0665V58.3335C258.814 58.7637 262.616 59.1938 265.967 59.1938C278.422 59.1938 283.634 54.5019 283.634 46.7388C283.634 40.5463 279.913 37.0149 274.751 36.4447L274.761 36.4347ZM264.106 22.9692C265.007 22.8292 266.497 22.6891 267.658 22.6891C271.459 22.6891 273.86 24.3398 273.86 27.8012C273.86 31.4627 271.669 33.4135 267.078 33.4135H264.116V22.9692H264.106ZM267.338 51.6908C266.567 51.6908 265.137 51.6208 264.116 51.4707V40.7464H268.388C272.64 40.7464 275.411 42.177 275.411 46.0685C275.411 49.9601 272.31 51.6808 267.348 51.6808L267.338 51.6908Z" fill="#F1E5D4"/>
<path d="M305.263 20.3682C295.319 20.3682 287.806 28.6915 287.806 39.736C287.806 50.7804 295.319 59.0938 305.263 59.0938C315.207 59.0938 322.72 50.7704 322.72 39.736C322.72 28.7016 315.217 20.3682 305.263 20.3682ZM305.263 51.4907C299.521 51.4907 295.489 46.6588 295.489 39.726C295.489 32.7932 299.511 27.9513 305.263 27.9513C311.015 27.9513 315.037 32.7932 315.037 39.726C315.037 46.6588 311.005 51.4907 305.263 51.4907Z" fill="#F1E5D4"/>
<path d="M347.44 51.4707C345.709 51.7908 344.068 52.0009 341.798 52.0009C337.096 52.0009 334.985 49.4199 334.985 43.6576V20.9985H327.462V45.2782C327.462 56.6928 335.275 59.0938 341.798 59.0938C345.999 59.0938 351.842 58.2735 354.803 57.263L354.953 57.213V20.9985H347.44V51.4807V51.4707Z" fill="#F1E5D4"/>
<path d="M385.195 45.3382L370.589 20.9985H363.116V58.4535H370.349V34.3938L385.435 58.4535H392.448V20.9985H385.195V45.3382Z" fill="#F1E5D4"/>
<path d="M396.64 28.3914H406.844V58.4535H414.277V28.3914H424.461V20.9985H396.64V28.3914Z" fill="#F1E5D4"/>
<path d="M457.654 20.9985H449.331L441.868 36.4747L434.265 20.9985H426.001L438.046 44.4579V58.4535H445.489L445.469 44.5679L457.654 20.9985Z" fill="#F1E5D4"/>
<path d="M207.684 28.1013C214.666 26.3506 216.767 18.5475 216.507 11.1045C209.985 12.6751 206.123 18.8176 207.684 28.1013Z" fill="#F1E5D4"/>
<path d="M467.478 0H0V2.43098H467.478V0Z" fill="#F1E5D4"/>
<path d="M467.478 71.5588H0V73.9998H467.478V71.5588Z" fill="#F1E5D4"/>
</svg>
