<svg width="230" height="36" viewBox="0 0 230 36" fill="none" xmlns="http://www.w3.org/2000/svg">
<path d="M226.624 24.4364C227.844 24.4364 228.932 25.3076 228.932 26.6557C228.932 28.0038 227.844 28.8944 226.624 28.8944C225.403 28.8944 224.305 28.0184 224.305 26.6557C224.305 25.293 225.398 24.4364 226.624 24.4364ZM226.624 28.4175C227.554 28.4175 228.322 27.6777 228.322 26.6557C228.322 25.6336 227.554 24.9133 226.624 24.9133C225.693 24.9133 224.925 25.6434 224.925 26.6557C224.925 27.668 225.674 28.4175 226.624 28.4175ZM225.728 25.4098H226.678C227.313 25.4098 227.667 25.6044 227.667 26.1495C227.667 26.6021 227.377 26.7822 227.012 26.8163L227.682 27.9113H227.155L226.535 26.8406H226.225V27.9113H225.723V25.4146L225.728 25.4098ZM226.668 26.4513C226.943 26.4513 227.165 26.4075 227.165 26.1106C227.165 25.8429 226.87 25.7942 226.648 25.7942H226.22V26.4513H226.668Z" fill="#27463A"/>
<path d="M17.3993 21.6039L8.89897 7.59713H4.8334V28.398H8.70701V14.5616L17.4682 28.398H21.2729V7.59713H17.3993V21.6039Z" fill="#27463A"/>
<path d="M29.7584 10.2155L23.3549 28.4418H27.2433L28.4984 24.6213H35.271L36.5311 28.4418H40.5474L34.0996 10.2155H29.7535H29.7584ZM34.1734 21.2681H29.6206L31.9093 14.401L34.1734 21.2681Z" fill="#27463A"/>
<path d="M39.2677 13.8121H44.2881V28.4369H47.9403V13.8121H52.9558V10.2155H39.2677V13.8121Z" fill="#27463A"/>
<path d="M65.6742 25.0399C64.8227 25.1956 64.0155 25.2978 62.9031 25.2978C60.5799 25.2978 59.5414 24.0422 59.5414 21.2389V10.2155H55.8401V22.0273C55.8401 27.5804 59.6792 28.7484 62.9031 28.7484C64.9704 28.7484 67.8399 28.3493 69.2968 27.8578L69.3706 27.8334V10.2155H65.6742V25.0447V25.0399Z" fill="#27463A"/>
<path d="M85.5886 16.0849C85.5886 12.099 83.1375 9.90888 78.6781 9.90888C77.1277 9.90888 75.1687 10.0646 74.0219 10.2739L73.9333 10.2885V28.4369H77.6051V22.3777H78.9488L82.852 28.4369H87.2326L82.5468 21.4628C84.4566 20.4505 85.5886 18.455 85.5886 16.0849ZM77.61 13.5298C77.9054 13.5055 78.3976 13.4763 78.6831 13.4763C80.1203 13.4763 81.8381 13.9532 81.8381 16.2066C81.8381 18.056 80.7798 18.9904 78.6831 18.9904H77.61V13.5249V13.5298Z" fill="#27463A"/>
<path d="M92.947 21.0491H99.3505V17.5109H92.947V13.8121H99.9215V10.2155H89.3096V28.4369H100.084V24.8403H92.947V21.0491Z" fill="#27463A"/>
<path d="M112.251 17.4281C110.386 16.8636 109.51 16.3818 109.51 15.1797C109.51 14.0798 110.272 13.4227 111.557 13.4227C113.024 13.4227 114.304 13.9824 115.716 15.2478L115.893 15.4035V11.3057L115.839 11.2716C114.54 10.3518 113.147 9.91862 111.444 9.91862C108.131 9.91862 105.907 12.1087 105.907 15.3695C105.907 18.4064 107.221 19.993 110.592 21.0247C112.345 21.5844 113.24 22.0954 113.24 23.3316C113.24 25.0545 111.473 25.2443 110.706 25.2443C108.796 25.2443 107.432 24.3245 106.355 23.4241L106.182 23.2781V27.3954L106.236 27.4344C107.388 28.2715 109.022 28.7581 110.71 28.7581C114.559 28.7581 116.853 26.6849 116.853 23.2148C116.853 20.1049 115.568 18.4842 112.246 17.4427L112.251 17.4281Z" fill="#27463A"/>
<path d="M135.183 17.725C137.151 17.3795 138.672 15.6615 138.672 13.1745C138.672 8.93551 135.69 7.32459 131.339 7.32459C129.754 7.32459 127.499 7.5728 126.072 7.81614V28.3785C127.337 28.5878 129.207 28.7971 130.856 28.7971C136.984 28.7971 139.548 26.5145 139.548 22.7379C139.548 19.7253 137.717 18.0073 135.178 17.7299L135.183 17.725ZM129.941 11.1743C130.384 11.1061 131.117 11.038 131.688 11.038C133.558 11.038 134.74 11.841 134.74 13.5249C134.74 15.3062 133.662 16.2552 131.403 16.2552H129.946V11.1743H129.941ZM131.531 25.1469C131.152 25.1469 130.448 25.1129 129.946 25.0399V19.8226H132.047C134.139 19.8226 135.503 20.5186 135.503 22.4118C135.503 24.305 133.977 25.1421 131.535 25.1421L131.531 25.1469Z" fill="#27463A"/>
<path d="M150.19 9.90888C145.297 9.90888 141.601 13.9581 141.601 19.3311C141.601 24.7041 145.297 28.7484 150.19 28.7484C155.082 28.7484 158.779 24.6992 158.779 19.3311C158.779 13.963 155.087 9.90888 150.19 9.90888ZM150.19 25.0496C147.365 25.0496 145.381 22.6989 145.381 19.3262C145.381 15.9535 147.36 13.5979 150.19 13.5979C153.02 13.5979 154.999 15.9535 154.999 19.3262C154.999 22.6989 153.015 25.0496 150.19 25.0496Z" fill="#27463A"/>
<path d="M170.941 25.0399C170.089 25.1956 169.282 25.2978 168.165 25.2978C165.852 25.2978 164.813 24.0422 164.813 21.2389V10.2155H161.112V22.0273C161.112 27.5804 164.956 28.7484 168.165 28.7484C170.232 28.7484 173.107 28.3493 174.564 27.8578L174.637 27.8334V10.2155H170.941V25.0447V25.0399Z" fill="#27463A"/>
<path d="M189.517 22.0565L182.33 10.2155H178.654V28.4369H182.212V16.7322L189.635 28.4369H193.085V10.2155H189.517V22.0565Z" fill="#27463A"/>
<path d="M195.147 13.8121H200.168V28.4369H203.825V13.8121H208.835V10.2155H195.147V13.8121Z" fill="#27463A"/>
<path d="M225.167 10.2155H221.071L217.4 17.7445L213.659 10.2155H209.593L215.519 21.6282V28.4369H219.181L219.172 21.6818L225.167 10.2155Z" fill="#27463A"/>
<path d="M102.181 13.6709C105.616 12.8193 106.65 9.02312 106.522 5.40219C103.313 6.16628 101.413 9.15452 102.181 13.6709Z" fill="#27463A"/>
<path d="M230 0H0V1.18264H230V0Z" fill="#27463A"/>
<path d="M230 34.8125H0V36H230V34.8125Z" fill="#27463A"/>
</svg>
